{
  "accessors": [
    {
      "bufferView": 2,
      "componentType": 5126,
      "count": 15722,
      "max": [
        17.665433883666992,
        37.621910095214844,
        140.5721893310547
      ],
      "min": [
        -8.674261093139648,
        -37.62180709838867,
        81.22105407714844
      ],
      "type": "VEC3"
    },
    {
      "bufferView": 2,
      "byteOffset": 188664,
      "componentType": 5126,
      "count": 15722,
      "max": [
        0.9998685121536255,
        0.9999555945396423,
        0.9879958629608154
      ],
      "min": [
        -0.9999610185623169,
        -0.9999557733535767,
        -0.9996628761291504
      ],
      "type": "VEC3"
    },
    {
      "bufferView": 3,
      "componentType": 5126,
      "count": 15722,
      "max": [
        0.9999781847000122,
        1.0,
        0.9979323744773865,
        1.0
      ],
      "min": [
        -0.9999924302101135,
        -1.0,
        -0.9726263880729675,
        -1.0
      ],
      "type": "VEC4"
    },
    {
      "bufferView": 1,
      "componentType": 5126,
      "count": 15722,
      "max": [
        0.9980469942092896,
        -0.00022200000239536166
      ],
      "min": [
        -0.00279999990016222,
        -1.0009770393371582
      ],
      "type": "VEC2"
    },
    {
      "bufferView": 1,
      "byteOffset": 125776,
      "componentType": 5126,
      "count": 15722,
      "max": [
        0.9980469942092896,
        -0.00022200000239536166
      ],
      "min": [
        -0.00279999990016222,
        -1.0009770393371582
      ],
      "type": "VEC2"
    },
    {
      "bufferView": 0,
      "componentType": 5125,
      "count": 84312,
      "type": "SCALAR"
    },
    {
      "bufferView": 2,
      "byteOffset": 377328,
      "componentType": 5126,
      "count": 42441,
      "max": [
        12.418092727661133,
        8.5968017578125,
        175.06689453125
      ],
      "min": [
        -22.48771095275879,
        -8.989222526550293,
        144.47055053710938
      ],
      "type": "VEC3"
    },
    {
      "bufferView": 2,
      "byteOffset": 886620,
      "componentType": 5126,
      "count": 42441,
      "max": [
        0.9999946355819702,
        0.9999964237213135,
        0.9997571706771851
      ],
      "min": [
        -0.9999838471412659,
        -0.9999964237213135,
        -0.9999828934669495
      ],
      "type": "VEC3"
    },
    {
      "bufferView": 3,
      "byteOffset": 251552,
      "componentType": 5126,
      "count": 42441,
      "max": [
        0.9999470114707947,
        0.9999603033065796,
        0.999994695186615,
        1.0
      ],
      "min": [
        -0.9999905824661255,
        -0.9999990463256836,
        -0.9999150633811951,
        -1.0
      ],
      "type": "VEC4"
    },
    {
      "bufferView": 1,
      "byteOffset": 251552,
      "componentType": 5126,
      "count": 42441,
      "max": [
        0.9975590109825134,
        -0.0027809999883174896
      ],
      "min": [
        0.0014929999597370625,
        -0.9980469942092896
      ],
      "type": "VEC2"
    },
    {
      "bufferView": 1,
      "byteOffset": 591080,
      "componentType": 5126,
      "count": 42441,
      "max": [
        0.9975590109825134,
        -0.0027809999883174896
      ],
      "min": [
        0.0014929999597370625,
        -0.9980469942092896
      ],
      "type": "VEC2"
    },
    {
      "bufferView": 0,
      "byteOffset": 337248,
      "componentType": 5125,
      "count": 240516,
      "type": "SCALAR"
    },
    {
      "bufferView": 2,
      "byteOffset": 1395912,
      "componentType": 5126,
      "count": 29483,
      "max": [
        11.549287796020508,
        7.946934223175049,
        166.14877319335938
      ],
      "min": [
        -8.85173225402832,
        -7.94714879989624,
        140.1667938232422
      ],
      "type": "VEC3"
    },
    {
      "bufferView": 2,
      "byteOffset": 1749708,
      "componentType": 5126,
      "count": 29483,
      "max": [
        1.0,
        0.9999754428863525,
        0.9998109936714172
      ],
      "min": [
        -1.0,
        -0.9999754428863525,
        -0.9999291300773621
      ],
      "type": "VEC3"
    },
    {
      "bufferView": 3,
      "byteOffset": 930608,
      "componentType": 5126,
      "count": 29483,
      "max": [
        0.9970217943191528,
        1.0,
        0.9971106052398682,
        1.0
      ],
      "min": [
        -0.999894380569458,
        -1.0,
        -0.9999896287918091,
        -1.0
      ],
      "type": "VEC4"
    },
    {
      "bufferView": 1,
      "byteOffset": 930608,
      "componentType": 5126,
      "count": 29483,
      "max": [
        0.9965819716453552,
        -0.002337000099942088
      ],
      "min": [
        -0.0003819999983534217,
        -0.9931640028953552
      ],
      "type": "VEC2"
    },
    {
      "bufferView": 1,
      "byteOffset": 1166472,
      "componentType": 5126,
      "count": 29483,
      "max": [
        0.9965819716453552,
        -0.002337000099942088
      ],
      "min": [
        -0.0003819999983534217,
        -0.9931640028953552
      ],
      "type": "VEC2"
    },
    {
      "bufferView": 0,
      "byteOffset": 1299312,
      "componentType": 5125,
      "count": 166644,
      "type": "SCALAR"
    },
    {
      "bufferView": 2,
      "byteOffset": 2103504,
      "componentType": 5126,
      "count": 25396,
      "max": [
        18.862768173217773,
        66.59992980957031,
        145.19775390625
      ],
      "min": [
        -6.696286201477051,
        -66.60004425048828,
        1.0700390338897705
      ],
      "type": "VEC3"
    },
    {
      "bufferView": 2,
      "byteOffset": 2408256,
      "componentType": 5126,
      "count": 25396,
      "max": [
        0.9999871253967285,
        0.9999727010726929,
        0.9999741315841675
      ],
      "min": [
        -0.9999825358390808,
        -0.9999727010726929,
        -0.9998798370361328
      ],
      "type": "VEC3"
    },
    {
      "bufferView": 1,
      "byteOffset": 1402336,
      "componentType": 5126,
      "count": 25396,
      "max": [
        0.9956049919128418,
        -0.005882000084966421
      ],
      "min": [
        0.003533999901264906,
        -0.9956049919128418
      ],
      "type": "VEC2"
    },
    {
      "bufferView": 0,
      "byteOffset": 1965888,
      "componentType": 5125,
      "count": 142740,
      "type": "SCALAR"
    },
    {
      "bufferView": 2,
      "byteOffset": 2713008,
      "componentType": 5126,
      "count": 48713,
      "max": [
        22.9022216796875,
        60.99352264404297,
        116.45307922363281
      ],
      "min": [
        -7.483250141143799,
        -60.99359130859375,
        -0.28144800662994385
      ],
      "type": "VEC3"
    },
    {
      "bufferView": 2,
      "byteOffset": 3297564,
      "componentType": 5126,
      "count": 48713,
      "max": [
        0.9999102354049683,
        0.9999899864196777,
        0.9998606443405151
      ],
      "min": [
        -0.9999462366104126,
        -0.999989926815033,
        -1.0
      ],
      "type": "VEC3"
    },
    {
      "bufferView": 3,
      "byteOffset": 1402336,
      "componentType": 5126,
      "count": 48713,
      "max": [
        0.9999775886535645,
        0.9999974370002747,
        0.9999951124191284,
        1.0
      ],
      "min": [
        -0.9997746348381042,
        -0.9999974966049194,
        -0.9999960660934448,
        -1.0
      ],
      "type": "VEC4"
    },
    {
      "bufferView": 1,
      "byteOffset": 1605504,
      "componentType": 5126,
      "count": 48713,
      "max": [
        0.9985349774360657,
        -0.0036140000447630882
      ],
      "min": [
        0.004021000117063522,
        -0.9980469942092896
      ],
      "type": "VEC2"
    },
    {
      "bufferView": 1,
      "byteOffset": 1995208,
      "componentType": 5126,
      "count": 48713,
      "max": [
        0.9985349774360657,
        -0.0036140000447630882
      ],
      "min": [
        0.004021000117063522,
        -0.9980469942092896
      ],
      "type": "VEC2"
    },
    {
      "bufferView": 0,
      "byteOffset": 2536848,
      "componentType": 5125,
      "count": 261054,
      "type": "SCALAR"
    },
    {
      "bufferView": 2,
      "byteOffset": 3882120,
      "componentType": 5126,
      "count": 10255,
      "max": [
        9.623432159423828,
        28.10855484008789,
        148.8472900390625
      ],
      "min": [
        -38.18065643310547,
        -28.10866355895996,
        30.009933471679688
      ],
      "type": "VEC3"
    },
    {
      "bufferView": 2,
      "byteOffset": 4005180,
      "componentType": 5126,
      "count": 10255,
      "max": [
        0.9996671676635742,
        0.9999038577079773,
        0.9996934533119202
      ],
      "min": [
        -0.9996892809867859,
        -0.9999064803123474,
        -0.9999567270278931
      ],
      "type": "VEC3"
    },
    {
      "bufferView": 3,
      "byteOffset": 2181744,
      "componentType": 5126,
      "count": 10255,
      "max": [
        0.999710202217102,
        0.9999933242797852,
        0.9999938607215881,
        1.0
      ],
      "min": [
        -0.9999327063560486,
        -0.9999933838844299,
        -0.9999719858169556,
        -1.0
      ],
      "type": "VEC4"
    },
    {
      "bufferView": 1,
      "byteOffset": 2384912,
      "componentType": 5126,
      "count": 10255,
      "max": [
        0.9916989803314209,
        -0.009139999747276306
      ],
      "min": [
        0.004013000056147575,
        -0.9956049919128418
      ],
      "type": "VEC2"
    },
    {
      "bufferView": 1,
      "byteOffset": 2466952,
      "componentType": 5126,
      "count": 10255,
      "max": [
        0.9916989803314209,
        -0.009139999747276306
      ],
      "min": [
        0.004013000056147575,
        -0.9956049919128418
      ],
      "type": "VEC2"
    },
    {
      "bufferView": 0,
      "byteOffset": 3581064,
      "componentType": 5125,
      "count": 56520,
      "type": "SCALAR"
    },
    {
      "bufferView": 2,
      "byteOffset": 4128240,
      "componentType": 5126,
      "count": 19296,
      "max": [
        6.61653995513916,
        15.761905670166016,
        140.85928344726563
      ],
      "min": [
        -26.964990615844727,
        -15.761747360229492,
        104.70518493652344
      ],
      "type": "VEC3"
    },
    {
      "bufferView": 2,
      "byteOffset": 4359792,
      "componentType": 5126,
      "count": 19296,
      "max": [
        0.9999774098396301,
        0.9999945163726807,
        0.9998019933700562
      ],
      "min": [
        -0.9999741911888123,
        -0.9999945759773254,
        -0.999999463558197
      ],
      "type": "VEC3"
    },
    {
      "bufferView": 3,
      "byteOffset": 2345824,
      "componentType": 5126,
      "count": 19296,
      "max": [
        0.9999587535858154,
        0.9999997615814209,
        0.9999971389770508,
        1.0
      ],
      "min": [
        -0.999961793422699,
        -1.0,
        -0.9991016387939453,
        -1.0
      ],
      "type": "VEC4"
    },
    {
      "bufferView": 1,
      "byteOffset": 2548992,
      "componentType": 5126,
      "count": 19296,
      "max": [
        0.9951170086860657,
        -0.0031300000846385956
      ],
      "min": [
        0.005791000090539455,
        -0.9970700144767761
      ],
      "type": "VEC2"
    },
    {
      "bufferView": 1,
      "byteOffset": 2703360,
      "componentType": 5126,
      "count": 19296,
      "max": [
        0.9951170086860657,
        -0.0031300000846385956
      ],
      "min": [
        0.005791000090539455,
        -0.9970700144767761
      ],
      "type": "VEC2"
    },
    {
      "bufferView": 0,
      "byteOffset": 3807144,
      "componentType": 5125,
      "count": 100134,
      "type": "SCALAR"
    }
  ],
  "asset": {
    "extras": {
      "author": "FacelessDude (https://sketchfab.com/klabagday)",
      "license": "CC-BY-4.0 (http://creativecommons.org/licenses/by/4.0/)",
      "source": "https://sketchfab.com/3d-models/marci-6ff9d715e16f45ddaef2a9e548a30df4",
      "title": "MARCI"
    },
    "generator": "Sketchfab-13.88.0",
    "version": "2.0"
  },
  "bufferViews": [
    {
      "buffer": 0,
      "byteLength": 4207680,
      "name": "floatBufferViews",
      "target": 34963
    },
    {
      "buffer": 0,
      "byteLength": 2857728,
      "byteOffset": 4207680,
      "byteStride": 8,
      "name": "floatBufferViews",
      "target": 34962
    },
    {
      "buffer": 0,
      "byteLength": 4591344,
      "byteOffset": 7065408,
      "byteStride": 12,
      "name": "floatBufferViews",
      "target": 34962
    },
    {
      "buffer": 0,
      "byteLength": 2654560,
      "byteOffset": 11656752,
      "byteStride": 16,
      "name": "floatBufferViews",
      "target": 34962
    }
  ],
  "buffers": [
    {
      "byteLength": 14311312,
      "uri": "scene.bin"
    }
  ],
  "images": [
    {
      "uri": "textures/torso_baseColor.png"
    },
    {
      "uri": "textures/torso_normal.png"
    },
    {
      "uri": "textures/hair_baseColor.png"
    },
    {
      "uri": "textures/hair_normal.png"
    },
    {
      "uri": "textures/head_baseColor.png"
    },
    {
      "uri": "textures/head_normal.png"
    },
    {
      "uri": "textures/clothes_baseColor.png"
    },
    {
      "uri": "textures/clothes_normal.png"
    },
    {
      "uri": "textures/cape_baseColor.png"
    },
    {
      "uri": "textures/cape_normal.png"
    },
    {
      "uri": "textures/bagpack_baseColor.png"
    },
    {
      "uri": "textures/bagpack_normal.png"
    }
  ],
  "materials": [
    {
      "doubleSided": true,
      "name": "torso",
      "normalTexture": {
        "index": 1
      },
      "pbrMetallicRoughness": {
        "baseColorTexture": {
          "index": 0
        },
        "metallicFactor": 0.0,
        "roughnessFactor": 0.8211145618000169
      }
    },
    {
      "doubleSided": true,
      "name": "hair",
      "normalTexture": {
        "index": 3
      },
      "pbrMetallicRoughness": {
        "baseColorTexture": {
          "index": 2
        },
        "metallicFactor": 0.0,
        "roughnessFactor": 0.8211145618000169
      }
    },
    {
      "doubleSided": true,
      "name": "head",
      "normalTexture": {
        "index": 5
      },
      "pbrMetallicRoughness": {
        "baseColorTexture": {
          "index": 4
        },
        "metallicFactor": 0.0,
        "roughnessFactor": 0.8211145618000169
      }
    },
    {
      "doubleSided": true,
      "name": "body",
      "pbrMetallicRoughness": {
        "baseColorTexture": {
          "index": 0
        },
        "metallicFactor": 0.0,
        "roughnessFactor": 0.8211145618000169
      }
    },
    {
      "doubleSided": true,
      "name": "clothes",
      "normalTexture": {
        "index": 7
      },
      "pbrMetallicRoughness": {
        "baseColorTexture": {
          "index": 6
        },
        "metallicFactor": 0.0,
        "roughnessFactor": 0.8211145618000169
      }
    },
    {
      "doubleSided": true,
      "name": "cape",
      "normalTexture": {
        "index": 9
      },
      "pbrMetallicRoughness": {
        "baseColorTexture": {
          "index": 8
        },
        "metallicFactor": 0.0,
        "roughnessFactor": 0.8211145618000169
      }
    },
    {
      "doubleSided": true,
      "name": "bagpack",
      "normalTexture": {
        "index": 11
      },
      "pbrMetallicRoughness": {
        "baseColorTexture": {
          "index": 10
        },
        "metallicFactor": 0.0,
        "roughnessFactor": 0.8211145618000169
      }
    }
  ],
  "meshes": [
    {
      "name": "marci_torso_0",
      "primitives": [
        {
          "attributes": {
            "NORMAL": 1,
            "POSITION": 0,
            "TANGENT": 2,
            "TEXCOORD_0": 3,
            "TEXCOORD_1": 4
          },
          "indices": 5,
          "material": 0,
          "mode": 4
        }
      ]
    },
    {
      "name": "marci_hair_0",
      "primitives": [
        {
          "attributes": {
            "NORMAL": 7,
            "POSITION": 6,
            "TANGENT": 8,
            "TEXCOORD_0": 9,
            "TEXCOORD_1": 10
          },
          "indices": 11,
          "material": 1,
          "mode": 4
        }
      ]
    },
    {
      "name": "marci_head_0",
      "primitives": [
        {
          "attributes": {
            "NORMAL": 13,
            "POSITION": 12,
            "TANGENT": 14,
            "TEXCOORD_0": 15,
            "TEXCOORD_1": 16
          },
          "indices": 17,
          "material": 2,
          "mode": 4
        }
      ]
    },
    {
      "name": "marci_body_0",
      "primitives": [
        {
          "attributes": {
            "NORMAL": 19,
            "POSITION": 18,
            "TEXCOORD_0": 20
          },
          "indices": 21,
          "material": 3,
          "mode": 4
        }
      ]
    },
    {
      "name": "marci_clothes_0",
      "primitives": [
        {
          "attributes": {
            "NORMAL": 23,
            "POSITION": 22,
            "TANGENT": 24,
            "TEXCOORD_0": 25,
            "TEXCOORD_1": 26
          },
          "indices": 27,
          "material": 4,
          "mode": 4
        }
      ]
    },
    {
      "name": "marci_cape_0",
      "primitives": [
        {
          "attributes": {
            "NORMAL": 29,
            "POSITION": 28,
            "TANGENT": 30,
            "TEXCOORD_0": 31,
            "TEXCOORD_1": 32
          },
          "indices": 33,
          "material": 5,
          "mode": 4
        }
      ]
    },
    {
      "name": "marci_bagpack_0",
      "primitives": [
        {
          "attributes": {
            "NORMAL": 35,
            "POSITION": 34,
            "TANGENT": 36,
            "TEXCOORD_0": 37,
            "TEXCOORD_1": 38
          },
          "indices": 39,
          "material": 6,
          "mode": 4
        }
      ]
    }
  ],
  "nodes": [
    {
      "children": [
        1
      ],
      "matrix": [
        1.0,
        0.0,
        0.0,
        0.0,
        0.0,
        2.220446049250313e-16,
        -1.0,
        0.0,
        0.0,
        1.0,
        2.220446049250313e-16,
        0.0,
        0.0,
        0.0,
        0.0,
        1.0
      ],
      "name": "Sketchfab_model"
    },
    {
      "children": [
        2
      ],
      "matrix": [
        0.009999999776482582,
        0.0,
        0.0,
        0.0,
        0.0,
        0.0,
        0.009999999776482582,
        0.0,
        0.0,
        -0.009999999776482582,
        0.0,
        0.0,
        0.0,
        0.0,
        0.0,
        1.0
      ],
      "name": "marci.fbx"
    },
    {
      "children": [
        3
      ],
      "name": "RootNode"
    },
    {
      "children": [
        4,
        5,
        6,
        7,
        8,
        9,
        10
      ],
      "matrix": [
        1.9470718859437852e-05,
        1.1102230246251565e-14,
        99.99999999999811,
        0.0,
        99.99999999999622,
        1.9470718859437852e-05,
        -1.9470718864988967e-05,
        0.0,
        -1.9470718864988967e-05,
        99.99999999999811,
        3.774758283725532e-12,
        0.0,
        0.0,
        0.0,
        0.0,
        1.0
      ],
      "name": "marci"
    },
    {
      "mesh": 0,
      "name": "marci_torso_0"
    },
    {
      "mesh": 1,
      "name": "marci_hair_0"
    },
    {
      "mesh": 2,
      "name": "marci_head_0"
    },
    {
      "mesh": 3,
      "name": "marci_body_0"
    },
    {
      "mesh": 4,
      "name": "marci_clothes_0"
    },
    {
      "mesh": 5,
      "name": "marci_cape_0"
    },
    {
      "mesh": 6,
      "name": "marci_bagpack_0"
    }
  ],
  "samplers": [
    {
      "magFilter": 9729,
      "minFilter": 9987,
      "wrapS": 10497,
      "wrapT": 10497
    }
  ],
  "scene": 0,
  "scenes": [
    {
      "name": "Sketchfab_Scene",
      "nodes": [
        0
      ]
    }
  ],
  "textures": [
    {
      "sampler": 0,
      "source": 0
    },
    {
      "sampler": 0,
      "source": 1
    },
    {
      "sampler": 0,
      "source": 2
    },
    {
      "sampler": 0,
      "source": 3
    },
    {
      "sampler": 0,
      "source": 4
    },
    {
      "sampler": 0,
      "source": 5
    },
    {
      "sampler": 0,
      "source": 6
    },
    {
      "sampler": 0,
      "source": 7
    },
    {
      "sampler": 0,
      "source": 8
    },
    {
      "sampler": 0,
      "source": 9
    },
    {
      "sampler": 0,
      "source": 10
    },
    {
      "sampler": 0,
      "source": 11
    }
  ]
}
